<svg id="visual" viewBox="0 0 675 900" width="675" height="900" xmlns="http://www.w3.org/2000/svg" xmlns:xlink="http://www.w3.org/1999/xlink" version="1.1"><rect x="0" y="0" width="675" height="900" fill="#393e41"></rect><path d="M0 833L16 833C32 833 64 833 96.2 819.5C128.3 806 160.7 779 192.8 779.8C225 780.7 257 809.3 289.2 823C321.3 836.7 353.7 835.3 385.8 814C418 792.7 450 751.3 482.2 744.8C514.3 738.3 546.7 766.7 578.8 773.7C611 780.7 643 766.3 659 759.2L675 752L675 901L659 901C643 901 611 901 578.8 901C546.7 901 514.3 901 482.2 901C450 901 418 901 385.8 901C353.7 901 321.3 901 289.2 901C257 901 225 901 192.8 901C160.7 901 128.3 901 96.2 901C64 901 32 901 16 901L0 901Z" fill="#ef476f" stroke-linecap="round" stroke-linejoin="miter"></path></svg>