<svg id="visual" viewBox="0 0 675 900" width="675" height="900" xmlns="http://www.w3.org/2000/svg" xmlns:xlink="http://www.w3.org/1999/xlink" version="1.1"><rect x="0" y="0" width="100%" height="100%" fill="#393e41"></rect><path d="M0 839L16 841C32 843 64 847 96.2 853.3C128.3 859.7 160.7 868.3 192.8 867.8C225 867.3 257 857.7 289.2 848.8C321.3 840 353.7 832 385.8 837C418 842 450 860 482.2 861.7C514.3 863.3 546.7 848.7 578.8 847C611 845.3 643 856.7 659 862.3L675 868L675 901L659 901C643 901 611 901 578.8 901C546.7 901 514.3 901 482.2 901C450 901 418 901 385.8 901C353.7 901 321.3 901 289.2 901C257 901 225 901 192.8 901C160.7 901 128.3 901 96.2 901C64 901 32 901 16 901L0 901Z" fill="#ef476f" stroke-linecap="round" stroke-linejoin="miter"></path></svg>