<svg xmlns="http://www.w3.org/2000/svg" version="1.1" xmlns:xlink="http://www.w3.org/1999/xlink" xmlns:svgjs="http://svgjs.com/svgjs" width="1440" height="560" preserveAspectRatio="none" viewBox="0 0 1440 560">
    <g mask="url(&quot;#SvgjsMask1680&quot;)" fill="none">
        <rect width="1440" height="560" x="0" y="0" fill="url(#SvgjsLinearGradient1681)"></rect>
        <path d="M 0,204 C 72,182.2 216,91.4 360,95 C 504,98.6 576,219.4 720,222 C 864,224.6 936,116.2 1080,108 C 1224,99.8 1368,166.4 1440,181L1440 560L0 560z" fill="#184a7e"></path>
        <path d="M 0,332 C 48,365.2 144,489 240,498 C 336,507 384,366.4 480,377 C 576,387.6 624,547 720,551 C 816,555 864,419.6 960,397 C 1056,374.4 1104,452.8 1200,438 C 1296,423.2 1392,346 1440,323L1440 560L0 560z" fill="rgba(52, 52, 51, 1)"></path>
    </g>
    <defs>
        <mask id="SvgjsMask1680">
            <rect width="1440" height="560" fill="#ffffff"></rect>
        </mask>
        <linearGradient x1="0%" y1="50%" x2="100%" y2="50%" gradientUnits="userSpaceOnUse" id="SvgjsLinearGradient1681">
            <stop stop-color="rgba(14, 42, 71, 1)" offset="0"></stop>
            <stop stop-color="rgba(239, 71, 111, 1)" offset="1"></stop>
        </linearGradient>
    </defs>
</svg>